<?xml version="1.0" encoding="UTF-8"?><svg id="Ebene_4" xmlns="http://www.w3.org/2000/svg" viewBox="0 0 500 500"><defs><style>.cls-1{fill:#0abebe;}.cls-2{fill:#000a0a;}.cls-3{fill:#fff;}.cls-4{fill:#a0e6e6;}</style></defs><path class="cls-3" d="M242.5101,11.0355L60.5275,98.6737c-4.7329,2.2793-8.1704,6.5897-9.3394,11.7112L6.2421,307.3062c-1.1689,5.1215.0579,10.4965,3.3332,14.6036l125.9359,157.9186c3.2753,4.1071,8.2426,6.4992,13.4958,6.4992h201.9855c5.2532,0,10.2205-2.3921,13.4958-6.4992l125.9359-157.9186c3.2753-4.1071,4.5021-9.4822,3.3332-14.6036l-44.946-196.9213c-1.1689-5.1215-4.6064-9.4319-9.3394-11.7112L257.4893,11.0355c-4.7329-2.2793-10.2462-2.2793-14.9792,0Z"/><path class="cls-1" d="M235.5123,137.7202c0-2.5754-.5254-16.8979-8.0736-24.045-17.4578-16.53-38.4655-5.7457-44.7471,7.8823-5.2359,11.3592-4.1579,21.8952-2.175,28.4751l54.9957-12.3124Z"/><path class="cls-4" d="M150.7501,178.4825c1.852,7.4699-6.6673,11.3592-10.0627,4.7536-4.0971-7.9707-13.0374-23.5693-33.9541-19.0603-13.518,2.9141-15.6189,19.1221-15.6189,19.1221l21.2367,30.3734-37.7816,105.6897-11.1122,79.0428,112.604,89.3693,171.8693-3.2102s21.8453-4.5633,20.7853-19.3931c-2.0911-29.2538-62.7648-124.0782-62.7648-124.0782l20.002-2.4694,48.8938-22.7184,4.6918-81.4897s-4.9388-30.5381-23.2122-41.8972c-28.7094-17.8464-102.2326-48.8938-192.9414-26.3401,0,0-9.5429,4.833-12.635,12.3058Z"/><path class="cls-1" d="M119.7963,219.6192s-27.905,109.5345,15.7895,178.3833c30.2911,47.7293,71.7013,81.7863,71.7013,81.7863l-70.9634,2.7902-34.6813-37.5057-37.7578-53.3491,1.5483-24.2102,30.6204-116.0611,7.4082-25.6816,16.3349-6.152Z"/><path class="cls-1" d="M387.1938,190.2121c-12.9755-11.1833-40.3609-3.8719-52.8449,11.1122-13.4447,16.1373-19.4474,90.9,9.1367,109.6407,24.236,15.8899,51.3456-3.436,56.0904-13.3135,6.9256-14.4175,14.5749-84.2056-12.3823-107.4395Z"/><path class="cls-2" d="M498.4716,289.5809l-37.5903-164.6992c-4.0987-17.9554-15.9684-32.8389-32.5633-40.8303L276.1122,10.7534c-16.592-7.9885-35.6323-7.9885-52.2243,0L71.682,84.0513c-16.5949,7.9914-28.4646,22.875-32.5633,40.8303L1.5284,289.5809c-4.0987,17.9612.1363,36.5199,11.6202,50.9161l105.3304,132.0837c11.4868,14.3991,28.6358,22.6574,47.0524,22.6574h168.9371c18.4166,0,35.5656-8.2583,47.0524-22.6603l105.3304-132.0779c11.4839-14.3991,15.7189-32.9578,11.6202-50.919ZM367.5859,461.4651c-8.0843,10.138-20.1541,15.951-33.1174,15.951h-168.9371c-12.9633,0-25.0331-5.813-33.1174-15.9481l-59.1403-74.1609c7.436-60.8148,27.7634-119.4134,43.8173-160.673l60.7567-20.3238c9.8464,17.6798,22.846,36.8593,38.9579,42.6723,7.5099,2.7093,14.8168,3.8898,21.7713,3.8898,27.2942,0,49.1148-18.1889,56.0155-33.522,6.7311-14.9604,10.2351-28.9795,4.7543-44.0907,11.3113-5.1807,28.965-8.6049,42.3445-6.3337.0261.0044.0522.0015.0798.0058,21.1374,9.1401,37.4409,20.0062,45.4787,29.6858,1.2139,1.462,2.3148,3.0994,3.3257,4.8601-.2205.1334-.4453.2625-.6556.4061-10.1844,6.9486-6.3293,21.8554-2.599,20.363,1.1907-.4772,5.3489-3.8608,8.6325-6.6963,4.9356,20.4065,2.1117,48.101-7.4824,68.7409-3.6491-1.1023-7.816-3.4301-7.6883-8.3381l.3843-8.5788c.351-7.6376.6062-13.1576.6062-17.3462,0-2.4598-1.9957-4.4555-4.4555-4.4555s-4.4555,1.9957-4.4555,4.4555c0,3.9827-.2495,9.4157-.5946,16.9372l-.3916,8.6325c-.058,1.3865-1.372,4.6527-4.644,7.5244-3.1879,2.7992-9.0386,5.961-18.9184,5.1052-2.4395-.2001-4.6121,1.6012-4.821,4.0552-.2118,2.4511,1.6041,4.6092,4.0552,4.821,1.3865.1218,2.7151.1769,3.9914.1769,10.6833,0,17.5609-3.9392,21.5726-7.4635,1.0936-.9601,2.0174-1.9522,2.8514-2.9515,2.2103,2.3974,5.1183,4.1524,8.2612,5.3431-1.2633,2.0479-2.6005,3.9957-4.0262,5.8029-23.3913,29.6568-108.2805,33.0739-138.9844,31.8672-4.9979-.0696-9.0589,3.6433-9.2504,8.5571-.1914,4.9167,3.6375,9.0589,8.5542,9.2533.8412.0319,4.9486.1769,11.3534.1769,15.2215,0,43.3888-.8325,71.3501-5.9639.1552.1943.2799.4046.454.5888,19.7364,20.9025,56.1715,83.0458,59.2614,97.7262l-15.3505,19.2476ZM166.8368,172.0704c-.087-.293-.7571-2.4409-2.2074-5.5186,43.4033-22.1367,94.0975-21.3419,136.6856-11.0575-3.8086,1.243-7.3939,2.7006-10.7007,4.309-3.2198-3.4547-11.584-5.3199-23.2854-5.3184h-.0044c-23.1288,0-59.0279,7.2068-92.6616,23.4203-7.6738,3.6999-7.816,7.1778-5.2604,12.4382l-45.2554,15.1388c-18.2628-10.0626-20.8314-16.2178-22.289-27.7989-1.0181-8.0553,1.5374-15.7595,6.6658-20.1106,4.6005-3.9073,10.8399-4.8384,18.0192-2.6977,17.7233,5.2822,22.9562,21.4536,23.2027,22.2484,1.4039,4.6933,6.3293,7.3794,11.0372,6.0016,4.7223-1.3836,7.4345-6.3322,6.0538-11.0546ZM187.2824,138.6745c.0044-3.9435.7353-8.6093,3.0356-13.6014,2.5062-5.4359,8.2931-9.8798,14.3991-11.0575,5.9958-1.1458,11.6956.7832,16.9459,5.755,2.6425,2.5033,4.164,7.4244,4.8993,11.9001-13.2519,1.0718-26.4399,3.3344-39.2799,7.0038ZM472.9164,329.3873l-77.0058,96.5602c-11.1249-25.9729-37.9441-67.1659-53.1533-86.4396,21.2984-5.7724,40.5693-14.6863,51.4339-28.4559,22.4152-28.4153,28.2761-77.6389,15.4796-108.9157,11.1141-21.3042,2.7383-55.6994-5.1908-71.4371-1.7767-3.5244-9.3432-5.433-19.4159-5.433-17.4985,0-42.5244,5.7869-57.9126,18.8589-25.3754-8.2569-54.3534-13.4245-83.7086-13.2026-.8659-6.8007-3.3184-16.8009-10.2293-23.3463-9.1401-8.6557-20.3891-12.2323-31.6757-10.0509-11.3447,2.1871-21.7379,10.2395-26.4718,20.5167-4.6223,10.0277-5.0632,19.281-4.2597,26.2325-5.5447,2.19-10.9864,4.6803-16.3121,7.4809-5.3387-5.5926-12.7428-10.9444-22.8634-13.9596-13.0329-3.884-25.3406-1.6911-34.6344,6.1843-9.816,8.325-14.6109,21.7611-12.8211,35.9339,1.8565,14.7312,6.7137,24.0643,18.2469,32.836l-8.3265,2.7847c-7.4722,2.5004-13.9205,7.1531-18.6457,13.4564l-11.4752,15.3041c-2.9529,3.9392-2.1523,9.523,1.7839,12.4759,1.6041,1.2009,3.4779,1.781,5.3402,1.781,2.7093,0,5.3837-1.2299,7.1357-3.565l11.4752-15.307c1.4402-1.9232,3.2053-3.5215,5.1749-4.8253-13.7131,36.6997-28.965,83.6883-36.8781,133.3078l-30.923-38.7781c-8.0843-10.1322-11.0662-23.194-8.18-35.8353l37.5903-164.6992c2.8862-12.6413,11.2402-23.1157,22.9214-28.7402L231.6211,26.8117c5.8391-2.8137,12.1104-4.2205,18.3789-4.2205s12.5398,1.4068,18.3789,4.2205l152.2059,73.2979c11.6811,5.6245,20.0352,16.0989,22.9214,28.7402l37.5903,164.6963c2.8862,12.6442-.0957,25.7061-8.18,35.8411Z"/><path class="cls-2" d="M124.527,165.1464c-2.2509-.9949-4.8848.0203-5.8797,2.2713s.0232,4.8819,2.2713,5.8797c5.3112,2.3496,11.4926,10.8225,13.9379,17.2592.6759,1.781,2.3699,2.8746,4.1654,2.8746.525,0,1.0617-.0928,1.5809-.2901,2.3003-.8731,3.4576-3.446,2.5845-5.7463-3.0951-8.151-10.6862-18.7154-18.6602-22.2484Z"/><path class="cls-2" d="M347.2781,224.2033c3.1995,1.3039,13.1663,4.6803,15.0213,4.6513,4.016-.058,1.8419-16.1062-10.2308-18.7357-3.4011-.7411-7.4142-.3089-9.3258,2.8267-2.2945,3.7637-.0189,9.4041,4.5353,11.2576Z"/><path class="cls-3" d="M402.2766,165.0527c.7172,5.2952,1.0414,10.6398.7469,15.6609-.1907,1.4358-.4293,2.6933-.6918,3.8695l-48.9879-41.5787c5.6731-2.0755,11.6746-3.6317,17.5311-4.6049l31.4016,26.6531Z"/><path class="cls-3" d="M241.9089,168.7961l44.6934,38.7926c-.8332,2.2335-1.7796,4.5193-2.8456,6.8863-1.2618,2.805-3.3344,5.9015-6.0871,8.9603l-57.4231-49.8414c7.6419-2.0769,14.9321-3.6578,21.6625-4.7978Z"/></svg>
